<svg width="22" height="17" viewBox="0 0 22 17" fill="none" xmlns="http://www.w3.org/2000/svg">
<g clip-path="url(#clip0_57_331)">
<path d="M20.4286 15.0682V5.79545C20.1667 6.08523 19.8843 6.35085 19.5815 6.59233C17.388 8.25048 15.6447 9.61079 14.3516 10.6733C13.9341 11.0194 13.5945 11.2891 13.3326 11.4822C13.0707 11.6754 12.7167 11.8706 12.2706 12.0678C11.8246 12.265 11.4051 12.3636 11.0123 12.3636H11H10.9877C10.5949 12.3636 10.1754 12.265 9.72935 12.0678C9.28329 11.8706 8.92932 11.6754 8.66741 11.4822C8.40551 11.2891 8.06585 11.0194 7.64844 10.6733C6.35528 9.61079 4.61199 8.25048 2.41853 6.59233C2.1157 6.35085 1.83333 6.08523 1.57143 5.79545V15.0682C1.57143 15.1728 1.6103 15.2634 1.68806 15.3398C1.76581 15.4163 1.85789 15.4545 1.96429 15.4545H20.0357C20.1421 15.4545 20.2342 15.4163 20.3119 15.3398C20.3897 15.2634 20.4286 15.1728 20.4286 15.0682ZM20.4286 2.37855C20.4286 2.36245 20.4286 2.31818 20.4286 2.24574C20.4286 2.1733 20.4286 2.11896 20.4286 2.08274C20.4286 2.04652 20.4265 1.9942 20.4224 1.92578C20.4183 1.85736 20.4061 1.80705 20.3856 1.77486C20.3651 1.74266 20.3426 1.70644 20.3181 1.66619C20.2935 1.62595 20.2567 1.59576 20.2076 1.57564C20.1585 1.55552 20.1012 1.54545 20.0357 1.54545H1.96429C1.85789 1.54545 1.76581 1.58369 1.68806 1.66016C1.6103 1.73662 1.57143 1.82718 1.57143 1.93182C1.57143 3.2841 2.17299 4.42708 3.37612 5.3608C4.95574 6.58429 6.59672 7.86008 8.29911 9.18821C8.34821 9.22846 8.49144 9.34718 8.7288 9.54439C8.96615 9.7416 9.15439 9.89252 9.29353 9.99716C9.43266 10.1018 9.61477 10.2286 9.83984 10.3775C10.0649 10.5264 10.2716 10.6371 10.4598 10.7095C10.6481 10.782 10.824 10.8182 10.9877 10.8182H11H11.0123C11.176 10.8182 11.3519 10.782 11.5402 10.7095C11.7284 10.6371 11.9351 10.5264 12.1602 10.3775C12.3852 10.2286 12.5673 10.1018 12.7065 9.99716C12.8456 9.89252 13.0339 9.7416 13.2712 9.54439C13.5086 9.34718 13.6518 9.22846 13.7009 9.18821C15.4033 7.86008 17.0443 6.58429 18.6239 5.3608C19.0659 5.01468 19.4771 4.54984 19.8577 3.96626C20.2383 3.38269 20.4286 2.85346 20.4286 2.37855ZM22 1.93182V15.0682C22 15.5994 21.8077 16.0542 21.423 16.4325C21.0383 16.8108 20.5759 17 20.0357 17H1.96429C1.4241 17 0.961683 16.8108 0.577009 16.4325C0.192334 16.0542 0 15.5994 0 15.0682V1.93182C0 1.40057 0.192334 0.945788 0.577009 0.567472C0.961683 0.189155 1.4241 0 1.96429 0H20.0357C20.5759 0 21.0383 0.189155 21.423 0.567472C21.8077 0.945788 22 1.40057 22 1.93182Z" fill="#00DA5B"/>
</g>
<defs>
<clipPath id="clip0_57_331">
<rect width="22" height="17" fill="white"/>
</clipPath>
</defs>
</svg>
