<svg width="12" height="20" viewBox="0 0 12 20" fill="none" xmlns="http://www.w3.org/2000/svg">
<g clip-path="url(#clip0_57_336)">
<path d="M10.6644 5.45261C10.9263 5.45261 11.14 5.37096 11.3054 5.20767C11.4709 5.04437 11.5536 4.82073 11.5536 4.53674V0.915868C11.5536 0.631876 11.4709 0.408237 11.3054 0.244941C11.14 0.081646 10.9263 0 10.6644 0H8.0176C7.28696 0 6.60458 0.141993 5.97045 0.425985C5.32253 0.709977 4.75733 1.10046 4.27483 1.59744C3.79234 2.09443 3.41324 2.6766 3.13753 3.34398C2.86182 3.99716 2.72396 4.70003 2.72396 5.45261V7.26305H0.966313C0.690602 7.26305 0.473483 7.34824 0.314948 7.51864C0.156414 7.68903 0.0771484 7.90912 0.0771484 8.17891V11.8211C0.0771484 12.0909 0.156414 12.3074 0.314948 12.4707C0.473483 12.634 0.690602 12.7157 0.966313 12.7157H2.72396V19.0841C2.72396 19.3539 2.80323 19.574 2.96176 19.7444C3.1203 19.9148 3.33742 20 3.61313 20H7.12843C7.40414 20 7.62126 19.9148 7.7798 19.7444C7.93833 19.574 8.0176 19.3539 8.0176 19.0841V12.7157H9.77525C9.99582 12.7157 10.1888 12.6518 10.3542 12.524C10.5197 12.3962 10.6231 12.2187 10.6644 11.9915L11.5536 8.37061C11.5949 8.22861 11.5984 8.09017 11.5639 7.95527C11.5295 7.82038 11.464 7.68193 11.3675 7.53994C11.2848 7.41214 11.1814 7.33404 11.0573 7.30564C10.9332 7.27725 10.8023 7.26305 10.6644 7.26305H8.0176V5.45261H10.6644ZM7.12843 9.09478H9.52711L9.07219 10.9052H7.12843C6.8665 10.9052 6.65628 10.9869 6.49774 11.1502C6.33921 11.3135 6.25994 11.5371 6.25994 11.8211V18.1683H4.48162V11.8211C4.48162 11.5371 4.40235 11.3135 4.24381 11.1502C4.08528 10.9869 3.87505 10.9052 3.61313 10.9052H1.8348V9.09478H3.61313C3.87505 9.09478 4.08528 9.00959 4.24381 8.83919C4.40235 8.6688 4.48162 8.44871 4.48162 8.17891V5.45261C4.48162 4.45864 4.8297 3.60313 5.52587 2.88605C6.22204 2.16897 7.05261 1.81044 8.0176 1.81044H9.77525V3.64217H8.0176C7.5351 3.64217 7.12154 3.81966 6.7769 4.17465C6.43226 4.52964 6.25994 4.95562 6.25994 5.45261V8.17891C6.25994 8.44871 6.33921 8.6688 6.49774 8.83919C6.65628 9.00959 6.8665 9.09478 7.12843 9.09478Z" fill="#839F8E"/>
</g>
<defs>
<clipPath id="clip0_57_336">
<rect width="11.5385" height="20" fill="white" transform="translate(0.0771484)"/>
</clipPath>
</defs>
</svg>
