<svg width="21" height="20" viewBox="0 0 21 20" fill="none" xmlns="http://www.w3.org/2000/svg">
<g clip-path="url(#clip0_57_338)">
<path d="M14.9263 0H5.84319C5.08981 0 4.37908 0.141993 3.71099 0.425985C3.05711 0.709977 2.48143 1.10046 1.98391 1.59744C1.4864 2.09443 1.0955 2.6766 0.811205 3.34398C0.52691 3.99716 0.384766 4.70003 0.384766 5.45261V14.5474C0.384766 15.2858 0.52691 15.9886 0.811205 16.656C1.0955 17.3234 1.4864 17.902 1.98391 18.3919C2.48143 18.8818 3.05711 19.2687 3.71099 19.5527C4.37908 19.8509 5.08981 20 5.84319 20H14.9263C15.6797 20 16.3904 19.8509 17.0585 19.5527C17.7124 19.2687 18.2881 18.8818 18.7856 18.3919C19.2831 17.902 19.674 17.3234 19.9583 16.656C20.2426 15.9886 20.3848 15.2858 20.3848 14.5474V5.45261C20.3848 4.70003 20.2426 3.99716 19.9583 3.34398C19.674 2.6766 19.2831 2.09443 18.7856 1.59744C18.2881 1.10046 17.7124 0.709977 17.0585 0.425985C16.3904 0.141993 15.6797 0 14.9263 0ZM18.5724 14.5474C18.5724 15.5414 18.217 16.3933 17.5063 17.1033C16.7956 17.8133 15.9356 18.1683 14.9263 18.1683H5.84319C4.83394 18.1683 3.97397 17.8133 3.26323 17.1033C2.55249 16.3933 2.19713 15.5414 2.19713 14.5474V5.45261C2.19713 4.45864 2.55249 3.60313 3.26323 2.88605C3.97397 2.16897 4.83394 1.81044 5.84319 1.81044H14.9263C15.9356 1.81044 16.7956 2.16897 17.5063 2.88605C18.217 3.60313 18.5724 4.45864 18.5724 5.45261V14.5474ZM11.1097 5.45261C10.8823 5.41001 10.6548 5.38871 10.4274 5.38871C10.2 5.38871 9.97254 5.41001 9.74511 5.45261C9.13387 5.53781 8.5724 5.7437 8.06067 6.07029C7.54894 6.39688 7.12251 6.79446 6.78135 7.26305C6.4402 7.73163 6.19145 8.25701 6.03509 8.83919C5.87872 9.42137 5.84319 10.0177 5.92848 10.6283C6.01376 11.2247 6.21277 11.782 6.52549 12.3003C6.83821 12.8186 7.24333 13.2623 7.74084 13.6315C8.15307 13.9013 8.58661 14.1214 9.04148 14.2918C9.49635 14.4622 9.97254 14.5474 10.4701 14.5474C10.5696 14.5474 10.6797 14.5438 10.8005 14.5367C10.9214 14.5296 11.0244 14.4977 11.1097 14.4409C11.7067 14.3557 12.2646 14.1569 12.7835 13.8445C13.3023 13.5321 13.7465 13.1274 14.1161 12.6305C14.4857 12.1335 14.738 11.5974 14.873 11.0224C15.0081 10.4473 15.0258 9.86156 14.9263 9.26518C14.7984 8.2712 14.3826 7.42279 13.679 6.71991C12.9754 6.01704 12.119 5.5946 11.1097 5.45261ZM12.6662 11.5442C12.4388 11.814 12.1687 12.0518 11.856 12.2577C11.5433 12.4636 11.2021 12.5879 10.8325 12.6305C10.1076 12.7157 9.43594 12.5417 8.8176 12.1086C8.19926 11.6755 7.84035 11.0898 7.74084 10.3514C7.61291 9.62726 7.77993 8.95634 8.24191 8.33866C8.70389 7.72098 9.29734 7.36244 10.0223 7.26305C10.0649 7.26305 10.1253 7.26305 10.2035 7.26305C10.2817 7.26305 10.3421 7.26305 10.3848 7.26305C10.4274 7.26305 10.4878 7.26305 10.566 7.26305C10.6442 7.26305 10.7046 7.26305 10.7472 7.26305C11.3443 7.36244 11.8489 7.61803 12.2611 8.02982C12.6733 8.44161 12.9292 8.94568 13.0287 9.54207C13.114 9.91125 13.1175 10.2698 13.0393 10.6177C12.9612 10.9656 12.8368 11.2744 12.6662 11.5442ZM14.7558 4.36635C14.6563 4.45154 14.5852 4.54384 14.5425 4.64324C14.4999 4.74263 14.4786 4.86333 14.4786 5.00532C14.4786 5.13312 14.4999 5.24672 14.5425 5.34611C14.5852 5.44551 14.6563 5.54491 14.7558 5.6443C14.8411 5.7295 14.9441 5.7934 15.0649 5.836C15.1858 5.87859 15.2959 5.89989 15.3954 5.89989C15.5234 5.89989 15.6371 5.87859 15.7366 5.836C15.8361 5.7934 15.9356 5.7295 16.0351 5.6443C16.1204 5.54491 16.1843 5.43486 16.227 5.31416C16.2696 5.19347 16.2909 5.09052 16.2909 5.00532C16.2909 4.86333 16.2696 4.74263 16.227 4.64324C16.1843 4.54384 16.1204 4.45154 16.0351 4.36635C15.8503 4.18175 15.6371 4.08946 15.3954 4.08946C15.1538 4.08946 14.9406 4.18175 14.7558 4.36635Z" fill="#839F8E"/>
</g>
<defs>
<clipPath id="clip0_57_338">
<rect width="20" height="20" fill="white" transform="translate(0.384766)"/>
</clipPath>
</defs>
</svg>
