<svg width="43" height="26" viewBox="0 0 43 26" fill="none" xmlns="http://www.w3.org/2000/svg">
<g clip-path="url(#clip0_57_323)">
<path d="M15.7052 17.0446L21.1433 21.5074H0V0L5.33388 4.37484V17.0446H15.7052Z" fill="#00DA5B"/>
<path d="M40.9069 3.41362C39.5112 2.14123 37.5523 1.50098 35.0261 1.50098H21.177L21.1621 21.5167L26.6341 26.0012V16.9104H35.0261C37.5523 16.9104 39.5112 16.2755 40.9069 15.0045C42.3054 13.7321 42.9999 11.8019 42.9999 9.2111C42.9999 6.6203 42.3067 4.686 40.9069 3.41497V3.41362ZM36.6818 11.7315C36.143 12.2269 35.3754 12.48 34.3723 12.48L26.6327 12.4557V5.93538H34.3723C35.3754 5.93538 36.143 6.18038 36.6818 6.66226C37.2111 7.15497 37.4832 8.00233 37.4832 9.20974C37.4832 10.4172 37.2111 11.228 36.6818 11.7315Z" fill="#00DA5B"/>
</g>
<defs>
<clipPath id="clip0_57_323">
<rect width="43" height="26" fill="white"/>
</clipPath>
</defs>
</svg>
