<svg width="21" height="22" viewBox="0 0 21 22" fill="none" xmlns="http://www.w3.org/2000/svg">
<g clip-path="url(#clip0_57_329)">
<path d="M18.5043 12.955C18.0846 12.9079 17.6611 12.8333 17.2339 12.7313C16.8067 12.6292 16.3983 12.5075 16.0086 12.3662C15.4839 12.162 14.9518 12.1267 14.4122 12.2602C13.8726 12.3936 13.3854 12.6645 12.9507 13.0728L12.2762 13.7794C11.4068 13.167 10.5974 12.48 9.84797 11.7184C9.0985 10.9568 8.43898 10.0971 7.86938 9.13919L8.5439 8.43255C8.91863 8.03997 9.1697 7.54533 9.29711 6.94861C9.42452 6.35189 9.39829 5.77873 9.21842 5.22912C9.06852 4.82084 8.94486 4.39686 8.84743 3.95717C8.75 3.51749 8.6788 3.06995 8.63383 2.61456C8.5439 1.86081 8.22163 1.23662 7.66702 0.74197C7.11242 0.247321 6.47538 0 5.75589 0H2.87794C2.83298 0 2.78426 0 2.7318 0C2.67934 0 2.63062 0 2.58565 0C2.21092 0.0471092 1.85867 0.168807 1.52891 0.365096C1.19914 0.561386 0.914348 0.808707 0.674518 1.10707C0.434688 1.40543 0.262313 1.74696 0.157388 2.13169C0.052462 2.51642 0 2.91292 0 3.3212C0.0749467 4.12206 0.19486 4.92291 0.359743 5.72377C0.539615 6.52463 0.760705 7.30978 1.02302 8.07923C1.28533 8.84868 1.58886 9.60242 1.93362 10.3405C2.27837 11.0785 2.6531 11.7852 3.05782 12.4604C3.44754 13.0885 3.86724 13.6931 4.31692 14.2741C4.7666 14.8708 5.24625 15.4361 5.75589 15.97C6.26553 16.5039 6.80514 17.0064 7.37473 17.4775C7.92934 17.9486 8.50642 18.3883 9.106 18.7966C9.75054 19.252 10.425 19.6602 11.1295 20.0214C11.8341 20.3826 12.5573 20.6966 13.2992 20.9636C14.0412 21.2306 14.7869 21.4504 15.5364 21.6231C16.3009 21.8116 17.0728 21.9372 17.8522 22C17.8972 22 17.9422 22 17.9872 22C18.0321 22 18.0771 22 18.1221 22C18.5118 22 18.8865 21.9254 19.2463 21.7762C19.606 21.6271 19.9058 21.4033 20.1456 21.1049C20.3854 20.8066 20.5878 20.4807 20.7527 20.1274C20.9176 19.7741 21 19.3933 21 18.985V15.97C21 15.2163 20.7639 14.5528 20.2918 13.9797C19.8196 13.4065 19.2238 13.065 18.5043 12.955ZM19.0889 15.97V18.985C19.0889 19.142 19.0664 19.2755 19.0214 19.3854C18.9764 19.4954 18.9015 19.5974 18.7966 19.6916C18.7066 19.8016 18.6055 19.8801 18.493 19.9272C18.3806 19.9743 18.227 19.9979 18.0321 19.9979C17.3426 19.9193 16.6531 19.8016 15.9636 19.6445C15.2891 19.4875 14.6221 19.2834 13.9625 19.0321C13.303 18.7809 12.651 18.4982 12.0064 18.1842C11.3769 17.8544 10.7623 17.4854 10.1627 17.0771C9.60813 16.7316 9.08351 16.3469 8.58887 15.9229C8.07923 15.4989 7.59583 15.0435 7.13865 14.5567C6.68147 14.0699 6.25054 13.5596 5.84582 13.0257C5.44111 12.4918 5.05889 11.9343 4.69914 11.3533C4.30942 10.7252 3.96467 10.0814 3.66488 9.42184C3.35011 8.76231 3.07655 8.08708 2.84422 7.39615C2.61188 6.70521 2.41328 5.99858 2.24839 5.27623C2.0985 4.56959 1.98608 3.84726 1.91113 3.10921C1.91113 2.96788 1.93362 2.84226 1.97859 2.73233C2.02355 2.62241 2.06852 2.51249 2.11349 2.40257C2.20343 2.30835 2.31585 2.21806 2.45075 2.13169C2.58565 2.04532 2.72805 2.00214 2.87794 2.00214H5.75589C5.99572 2.00214 6.20182 2.09243 6.3742 2.27302C6.54658 2.45361 6.66274 2.66952 6.7227 2.92077C6.76767 3.42327 6.8576 3.93754 6.99251 4.4636C7.12741 4.98965 7.29229 5.48037 7.48715 5.93576C7.53212 6.1399 7.53587 6.33619 7.49839 6.52463C7.46092 6.71306 7.38972 6.8858 7.2848 7.04283L6.04818 8.24411C5.89829 8.38544 5.8046 8.56995 5.76713 8.79764C5.72966 9.02534 5.75589 9.24125 5.84582 9.4454C6.20557 10.1206 6.61028 10.7645 7.05996 11.3769C7.49465 11.9893 7.97055 12.5664 8.48769 13.1081C9.00482 13.6499 9.55567 14.1563 10.1403 14.6274C10.7248 15.0828 11.3394 15.4989 11.9839 15.8758C12.1788 15.9857 12.3849 16.0289 12.6022 16.0054C12.8196 15.9818 12.9957 15.8758 13.1306 15.6874L14.3897 14.3683C14.5396 14.227 14.7045 14.1328 14.8844 14.0857C15.0642 14.0385 15.2516 14.07 15.4465 14.1799C15.9261 14.3683 16.4058 14.5214 16.8854 14.6392C17.3651 14.757 17.8448 14.8708 18.3244 14.9807C18.5193 15.0278 18.6954 15.1417 18.8528 15.3223C19.0102 15.5029 19.0889 15.7188 19.0889 15.97Z" fill="#00DA5B"/>
</g>
<defs>
<clipPath id="clip0_57_329">
<rect width="21" height="22" fill="white"/>
</clipPath>
</defs>
</svg>
