<svg width="20" height="20" viewBox="0 0 20 20" fill="none" xmlns="http://www.w3.org/2000/svg">
<path d="M18.2833 5.18518C17.0796 5.18518 16.0474 4.74923 15.1865 3.87731C14.3257 3.0054 13.8953 1.95988 13.8953 0.740741C13.8953 0.540122 13.8229 0.366513 13.6782 0.219907C13.5334 0.0733015 13.362 0 13.1639 0H9.50729C9.30922 0 9.13782 0.0733015 8.99308 0.219907C8.84833 0.366513 8.77596 0.540122 8.77596 0.740741V12.963C8.77596 13.4722 8.59694 13.9082 8.23889 14.2708C7.88084 14.6335 7.45043 14.8148 6.94764 14.8148C6.44485 14.8148 6.01443 14.6335 5.65638 14.2708C5.29833 13.9082 5.11931 13.4722 5.11931 12.963C5.11931 12.5926 5.21454 12.2608 5.40499 11.9676C5.59544 11.6744 5.84302 11.4506 6.14775 11.2963H6.1706C6.29249 11.2346 6.39152 11.142 6.4677 11.0185C6.54388 10.8951 6.58197 10.7639 6.58197 10.625V6.66667C6.58197 6.46605 6.5096 6.29244 6.36486 6.14583C6.22012 5.99923 6.04871 5.92593 5.85064 5.92593C5.83541 5.92593 5.81636 5.92593 5.79351 5.92593C5.77065 5.92593 5.74399 5.93364 5.71352 5.94907V5.92593C4.906 6.08025 4.15183 6.37345 3.45096 6.80556C2.7501 7.23766 2.14448 7.7662 1.63407 8.3912C1.12366 9.01621 0.723713 9.72222 0.434227 10.5093C0.144741 11.2963 0 12.1142 0 12.963C0 13.9352 0.182831 14.8457 0.548498 15.6944C0.914164 16.5586 1.40933 17.3071 2.03401 17.9398C2.65869 18.5725 3.39763 19.0741 4.25086 19.4444C5.08884 19.8148 5.98776 20 6.94764 20C7.90751 20 8.80643 19.8148 9.64442 19.4444C10.4976 19.0741 11.2366 18.5725 11.8613 17.9398C12.4859 17.3071 12.9811 16.5586 13.3468 15.6944C13.7124 14.8457 13.8953 13.9352 13.8953 12.963V9.28241C14.5352 9.62191 15.2246 9.88812 15.9636 10.081C16.7025 10.2739 17.4681 10.3704 18.2604 10.3704C18.2604 10.3704 18.2642 10.3704 18.2718 10.3704C18.2794 10.3704 18.2833 10.3704 18.2833 10.3704C18.4813 10.3704 18.6527 10.2971 18.7975 10.1505C18.9422 10.0039 19.0146 9.83025 19.0146 9.62963V5.92593C19.0146 5.72531 18.9422 5.5517 18.7975 5.40509C18.6527 5.25849 18.4813 5.18518 18.2833 5.18518ZM17.5519 8.86574C16.8054 8.78858 16.0969 8.61883 15.4265 8.35648C14.7561 8.09413 14.1391 7.75463 13.5753 7.33796L13.5982 7.36111C13.5372 7.31481 13.4687 7.28009 13.3925 7.25694C13.3163 7.2338 13.2401 7.22222 13.1639 7.22222C12.9659 7.22222 12.7945 7.29552 12.6497 7.44213C12.505 7.58874 12.4326 7.76234 12.4326 7.96296V12.963C12.4326 13.7346 12.2879 14.4522 11.9984 15.1157C11.7089 15.7948 11.3166 16.385 10.8214 16.8866C10.3262 17.3881 9.74346 17.7855 9.07307 18.0787C8.41791 18.3719 7.70944 18.5185 6.94764 18.5185C6.18583 18.5185 5.47736 18.3719 4.82221 18.0787C4.15182 17.7855 3.56905 17.3881 3.07387 16.8866C2.5787 16.385 2.18637 15.7948 1.89689 15.1157C1.6074 14.4522 1.46266 13.7346 1.46266 12.963C1.46266 11.7593 1.80547 10.6674 2.49109 9.6875C3.17672 8.70756 4.05278 8.02469 5.11931 7.63889V10.1852C4.67746 10.4938 4.32323 10.8912 4.0566 11.3773C3.78997 11.8634 3.65665 12.392 3.65665 12.963C3.65665 13.8889 3.97661 14.6759 4.61652 15.3241C5.25644 15.9722 6.03347 16.2963 6.94764 16.2963C7.8618 16.2963 8.63884 15.9722 9.27875 15.3241C9.91867 14.6759 10.2386 13.8889 10.2386 12.963V1.48148H12.4783C12.5697 2.14507 12.7602 2.77006 13.0497 3.35648C13.3392 3.9429 13.7048 4.46373 14.1467 4.91898C14.5885 5.37423 15.0989 5.74846 15.6779 6.04167C16.2569 6.33488 16.8739 6.52778 17.5291 6.62037H17.5519V8.86574Z" fill="#839F8E"/>
</svg>
